<svg id="Layer_1" data-name="Layer 1" xmlns="http://www.w3.org/2000/svg" viewBox="0 0 149.34 512"><title>temp</title><path d="M309.33,385.08V53.34a53.33,53.33,0,1,0-106.66,0V385.08a74.67,74.67,0,1,0,106.66,0ZM256,490.67A53.33,53.33,0,0,1,217.9,400l6.1-6.22V234.62a10.66,10.66,0,0,0,0-21.24v-160a32,32,0,0,1,64,0v160a10.66,10.66,0,0,0,0,21.24V393.8l6.1,6.22A53.33,53.33,0,0,1,256,490.67Z" transform="translate(-181.33)"/><path d="M266.67,407.17V224a10.67,10.67,0,0,0-21.34,0V407.17a32,32,0,1,0,21.34,0ZM256,448a10.67,10.67,0,1,1,10.67-10.67A10.68,10.68,0,0,1,256,448Z" transform="translate(-181.33)"/></svg>