<?xml version="1.0" encoding="iso-8859-1"?>
<!-- Generator: Adobe Illustrator 19.0.0, SVG Export Plug-In . SVG Version: 6.00 Build 0)  -->
<svg version="1.1" id="Layer_1" xmlns="http://www.w3.org/2000/svg" xmlns:xlink="http://www.w3.org/1999/xlink" x="0px" y="0px"
	 viewBox="0 0 512 512" style="enable-background:new 0 0 512 512;" xml:space="preserve">
<g>
	<g>
		<path d="M207.666,385.078V53.336h0.001C207.667,23.875,183.792,0,154.338,0c-29.461,0-53.336,23.875-53.336,53.336v331.742
			c-13.195,13.469-21.336,31.906-21.336,52.25c0,41.25,33.43,74.672,74.672,74.672c41.234,0,74.664-33.422,74.664-74.672
			C229.002,416.984,220.861,398.547,207.666,385.078z M154.338,490.672c-29.414,0-53.336-23.938-53.336-53.344
			c0-14.031,5.414-27.281,15.234-37.312l6.102-6.219v-8.719V234.625c5.469-0.453,9.773-5.031,9.773-10.625
			s-4.305-10.172-9.773-10.625V53.336c0-17.648,14.352-32,32-32c17.641,0,32,14.352,32,32v160.039
			c-5.477,0.453-9.781,5.031-9.781,10.625s4.305,10.172,9.781,10.625v150.453v8.719l6.094,6.219
			c9.82,10.031,15.234,23.281,15.234,37.312C207.667,466.734,183.745,490.672,154.338,490.672z"/>
	</g>
</g>
<g>
	<g>
		<path d="M165.002,407.172V352c0-5.891-4.773-10.672-10.664-10.672c-5.898,0-10.672,4.781-10.672,10.672v55.172
			c-12.422,4.375-21.328,16.219-21.328,30.156c0,17.688,14.32,32,32,32c17.672,0,32-14.312,32-32
			C186.338,423.391,177.432,411.547,165.002,407.172z M154.338,448c-5.883,0-10.672-4.781-10.672-10.672
			c0-5.875,4.789-10.656,10.672-10.656c5.875,0,10.664,4.781,10.664,10.656C165.002,443.219,160.213,448,154.338,448z"/>
	</g>
</g>
<g>
	<g>
		<path d="M427.002,265.625c-3.625-2.094-7.938-1.812-11.219,0.328l-14.406,9.516L367.658,256l33.719-19.469l14.406,9.516v-0.008
			c3.281,2.148,7.594,2.43,11.219,0.344c5.094-2.945,6.844-9.469,3.906-14.57c-0.875-1.492-2.031-2.68-3.375-3.562v-0.008
			l-5.5-3.633l3.531-2.039c5.109-2.945,6.844-9.469,3.906-14.57s-9.469-6.852-14.562-3.906l-0.016,0.008l-3.516,2.031l-0.406-6.578
			c-0.094-1.602-0.547-3.211-1.406-4.695c-2.938-5.102-9.469-6.852-14.562-3.906c-3.625,2.086-5.531,5.977-5.312,9.875l1.031,17.234
			l-33.719,19.461v-38.93l15.438-7.719v-0.008c3.5-1.75,5.906-5.359,5.906-9.531c0-5.891-4.781-10.672-10.688-10.672
			c-1.703,0-3.312,0.414-4.75,1.141v-0.016l-5.906,2.953v-4.078c0-5.891-4.781-10.664-10.656-10.664
			c-5.906,0-10.688,4.773-10.688,10.664v4.078l-5.875-2.953l-0.016,0.016c-1.438-0.727-3.047-1.141-4.766-1.141
			c-5.891,0-10.656,4.781-10.656,10.672c0,4.172,2.391,7.781,5.891,9.531l-0.016,0.008l15.438,7.719v38.93l-33.703-19.461
			l1.031-17.234h-0.016c0.234-3.898-1.688-7.789-5.297-9.875c-5.109-2.945-11.625-1.195-14.578,3.906
			c-0.844,1.484-1.312,3.094-1.406,4.695l-0.391,6.578l-3.531-2.039c-5.109-2.945-11.625-1.195-14.57,3.906
			s-1.195,11.625,3.906,14.57c0,0,0,0.008,0.008,0.008l3.516,2.031l-5.5,3.633l0.008,0.008c-1.344,0.883-2.508,2.07-3.367,3.562
			c-2.945,5.102-1.195,11.625,3.906,14.57c3.617,2.086,7.938,1.805,11.203-0.344v0.008l14.406-9.516L325.002,256l-33.719,19.469
			l-14.406-9.516c-3.266-2.141-7.586-2.422-11.203-0.344c-5.102,2.969-6.852,9.484-3.906,14.594
			c0.859,1.469,2.023,2.656,3.367,3.547l-0.008,0.016l5.5,3.625l-3.523,2.031c-5.102,2.953-6.852,9.469-3.906,14.578
			s9.461,6.859,14.57,3.906l0.016-0.016l3.516-2.031l0.391,6.594c0.094,1.594,0.562,3.203,1.406,4.688
			c2.953,5.094,9.469,6.844,14.578,3.906c3.609-2.094,5.531-5.969,5.297-9.875h0.016l-1.031-17.219l33.703-19.469v38.922
			l-15.438,7.719l0.016,0.016c-3.5,1.75-5.891,5.344-5.891,9.531c0,5.891,4.766,10.656,10.656,10.656
			c1.719,0,3.328-0.406,4.766-1.125h0.016l5.875-2.938v4.062c0,5.906,4.781,10.672,10.688,10.672
			c5.875,0,10.656-4.766,10.656-10.672v-4.062l5.906,2.938c1.438,0.719,3.047,1.125,4.75,1.125c5.906,0,10.688-4.766,10.688-10.656
			c0-4.188-2.406-7.781-5.906-9.531v-0.016l-15.438-7.719v-38.922l33.719,19.469l-1.031,17.219
			c-0.219,3.906,1.688,7.781,5.312,9.875c5.094,2.938,11.625,1.188,14.562-3.906c0.859-1.484,1.312-3.094,1.406-4.688l0.406-6.594
			l3.516,2.031l0.016,0.016c5.094,2.953,11.625,1.203,14.562-3.906s1.203-11.625-3.906-14.578l-3.531-2.031l5.5-3.625v-0.016
			c1.342-0.891,2.498-2.078,3.373-3.547C433.846,275.094,432.096,268.578,427.002,265.625z"/>
	</g>
</g>
<g>
</g>
<g>
</g>
<g>
</g>
<g>
</g>
<g>
</g>
<g>
</g>
<g>
</g>
<g>
</g>
<g>
</g>
<g>
</g>
<g>
</g>
<g>
</g>
<g>
</g>
<g>
</g>
<g>
</g>
</svg>
