<?xml version="1.0" encoding="iso-8859-1"?>
<!-- Generator: Adobe Illustrator 19.0.0, SVG Export Plug-In . SVG Version: 6.00 Build 0)  -->
<svg version="1.1" id="Layer_1" xmlns="http://www.w3.org/2000/svg" xmlns:xlink="http://www.w3.org/1999/xlink" x="0px" y="0px"
	 viewBox="0 0 512 512" style="enable-background:new 0 0 512 512;" xml:space="preserve">
<g>
	<g>
		<path d="M192,385.078V53.336C192,23.875,168.117,0,138.664,0S85.336,23.875,85.336,53.336v331.742
			C72.141,398.547,64,416.984,64,437.328C64,478.578,97.43,512,138.664,512c41.242,0,74.672-33.422,74.672-74.672
			C213.336,416.984,205.195,398.547,192,385.078z M138.664,490.672c-29.406,0-53.328-23.938-53.328-53.344
			c0-14.031,5.406-27.281,15.234-37.312l6.094-6.219v-8.719V234.625c5.477-0.453,9.781-5.031,9.781-10.625
			s-4.305-10.172-9.781-10.625V53.336c0-17.648,14.359-32,32-32c17.648,0,32,14.352,32,32v160.039
			c-5.469,0.453-9.773,5.031-9.773,10.625s4.305,10.172,9.773,10.625v150.453v8.719l6.094,6.219
			C186.586,410.047,192,423.297,192,437.328C192,466.734,168.078,490.672,138.664,490.672z"/>
	</g>
</g>
<g>
	<g>
		<path d="M149.336,407.172V96c0-5.891-4.781-10.664-10.672-10.664S128,90.109,128,96v311.172
			c-12.43,4.375-21.336,16.219-21.336,30.156c0,17.688,14.328,32,32,32s32-14.312,32-32
			C170.664,423.391,161.758,411.547,149.336,407.172z M138.664,448c-5.883,0-10.664-4.781-10.664-10.672
			c0-5.875,4.781-10.656,10.664-10.656s10.672,4.781,10.672,10.656C149.336,443.219,144.547,448,138.664,448z"/>
	</g>
</g>
<g>
	<g>
		<path d="M330.672,139.445c-5.906,0-10.672,4.773-10.672,10.664v21.336c0,5.891,4.766,10.664,10.672,10.664
			c5.875,0,10.656-4.773,10.656-10.664v-21.336C341.328,144.218,336.547,139.445,330.672,139.445z"/>
	</g>
</g>
<g>
	<g>
		<path d="M330.672,331.453c-5.906,0-10.672,4.766-10.672,10.656v21.344c0,5.875,4.766,10.656,10.672,10.656
			c5.875,0,10.656-4.781,10.656-10.656v-21.344C341.328,336.219,336.547,331.453,330.672,331.453z"/>
	</g>
</g>
<g>
	<g>
		<path d="M277.859,188.898l-15.062-15.078l-0.008-0.008c-4.172-4.164-10.922-4.164-15.094,0c-4.164,4.165-4.164,10.922,0,15.086
			l15.086,15.086c0,0,0,0,0.008,0c4.164,4.164,10.914,4.164,15.07,0C282.047,199.812,282.047,193.062,277.859,188.898z"/>
	</g>
</g>
<g>
	<g>
		<path d="M413.641,324.672c0,0,0,0,0-0.016l-15.094-15.078c-4.156-4.156-10.906-4.172-15.094,0c-4.156,4.156-4.156,10.906,0,15.094
			l15.094,15.062c4.156,4.188,10.922,4.188,15.094,0C417.797,335.578,417.797,328.828,413.641,324.672z"/>
	</g>
</g>
<g>
	<g>
		<path d="M245.336,246.109h-21.32c0,0-0.008,0-0.016,0c-5.891,0-10.664,4.781-10.664,10.672s4.773,10.672,10.664,10.672h21.336
			c5.891,0,10.664-4.781,10.664-10.672S251.227,246.109,245.336,246.109z"/>
	</g>
</g>
<g>
	<g>
		<path d="M437.328,246.109H416c-5.891,0-10.672,4.781-10.672,10.672s4.781,10.672,10.672,10.672h21.328
			c5.906,0,10.672-4.781,10.672-10.672S443.234,246.109,437.328,246.109z"/>
	</g>
</g>
<g>
	<g>
		<path d="M277.859,309.578c-4.156-4.156-10.906-4.172-15.07,0c-0.008,0-0.008,0-0.008,0l-15.07,15.062c0,0-0.008,0.016-0.016,0.016
			c-4.164,4.172-4.164,10.922,0,15.078c4.172,4.188,10.922,4.188,15.094,0l15.07-15.062c0-0.016,0-0.016,0-0.016
			C282.047,320.484,282.047,313.734,277.859,309.578z"/>
	</g>
</g>
<g>
	<g>
		<path d="M413.641,173.812c-4.172-4.164-10.938-4.172-15.094,0l-15.094,15.086c-4.156,4.164-4.156,10.914,0,15.086
			c4.188,4.164,10.938,4.164,15.094,0c0,0,0-0.008,0-0.016l15.094-15.07C417.797,184.726,417.797,177.976,413.641,173.812z"/>
	</g>
</g>
<g>
	<g>
		<path d="M330.672,192.781c-35.344,0-64,28.648-64,64c0,35.344,28.656,64,64,64s64-28.656,64-64
			C394.672,221.43,366.016,192.781,330.672,192.781z M330.672,299.453c-23.531,0-42.672-19.156-42.672-42.672
			c0-23.531,19.141-42.672,42.672-42.672s42.656,19.141,42.656,42.672C373.328,280.297,354.203,299.453,330.672,299.453z"/>
	</g>
</g>
<g>
</g>
<g>
</g>
<g>
</g>
<g>
</g>
<g>
</g>
<g>
</g>
<g>
</g>
<g>
</g>
<g>
</g>
<g>
</g>
<g>
</g>
<g>
</g>
<g>
</g>
<g>
</g>
<g>
</g>
</svg>
