<?xml version="1.0"?>
<svg xmlns="http://www.w3.org/2000/svg" viewBox="0 0 74 74" width="512" height="512"><g id="Icons"><path d="M58.23,42.27c-.462,0-.914-.021-1.365-.064a1,1,0,1,1,.189-1.991c.389.037.777.056,1.175.056a13.542,13.542,0,0,0,10.9-5.554,13.483,13.483,0,0,1-16.4-20.207A13.569,13.569,0,0,0,44.76,26.8a13.425,13.425,0,0,0,2.271,7.494,1,1,0,0,1-1.662,1.112A15.478,15.478,0,0,1,55.933,11.5a1,1,0,0,1,.756,1.783A11.475,11.475,0,1,0,71.137,31.1a1,1,0,0,1,1.59,1.106A15.534,15.534,0,0,1,58.23,42.27Z"/><path d="M60.389,70.493H12a10.022,10.022,0,0,1-.439-20.033A16.617,16.617,0,0,1,40.449,35.58a12.189,12.189,0,0,1,6.341-1.762,12.333,12.333,0,0,1,12.3,12.336q0,.568-.052,1.135a11.64,11.64,0,1,1,1.349,23.2ZM12,52.45a8.021,8.021,0,0,0,0,16.042H60.389a9.641,9.641,0,1,0-2.3-19,1,1,0,0,1-1.219-1.178,10.451,10.451,0,0,0,.226-2.159,10.331,10.331,0,0,0-10.3-10.336,10.2,10.2,0,0,0-5.981,1.919,1,1,0,0,1-1.392-.224A14.631,14.631,0,0,0,13.871,51.159a1,1,0,0,1-1.051,1.334A7.5,7.5,0,0,0,12,52.45Z"/><path d="M59.9,23.438a3.125,3.125,0,1,1,3.125-3.125A3.129,3.129,0,0,1,59.9,23.438Zm0-4.25a1.125,1.125,0,1,0,1.125,1.125A1.127,1.127,0,0,0,59.9,19.188Z"/><circle cx="64.478" cy="28.368" r="1.022"/><path d="M64.478,29.89A1.522,1.522,0,1,1,66,28.368,1.524,1.524,0,0,1,64.478,29.89Zm0-2.044a.522.522,0,1,0,.522.522A.523.523,0,0,0,64.478,27.845Z"/><path d="M37,25.563a3.125,3.125,0,1,1,3.125-3.125A3.129,3.129,0,0,1,37,25.563Zm0-4.25a1.125,1.125,0,1,0,1.125,1.125A1.127,1.127,0,0,0,37,21.313Z"/></g></svg>
