<svg height="512" viewBox="0 0 74 74" width="512" xmlns="http://www.w3.org/2000/svg"><g id="Icons"><path d="m14.095 36.849a1 1 0 0 1 -.831-.443 11.99 11.99 0 1 1 21.947-7.27 1 1 0 0 1 -2 .1 9.99 9.99 0 1 0 -18.289 6.055 1 1 0 0 1 -.829 1.557z"/><path d="m23.235 15.942a1 1 0 0 1 -1-1v-2.5a1 1 0 1 1 2 0v2.5a1 1 0 0 1 -1 1z"/><path d="m23.235 15.942a1 1 0 0 1 -1-1v-2.5a1 1 0 1 1 2 0v2.5a1 1 0 0 1 -1 1z"/><path d="m10.339 23.116a.994.994 0 0 1 -.5-.134l-2.114-1.221a1 1 0 0 1 1-1.732l2.115 1.221a1 1 0 0 1 -.5 1.866z"/><path d="m7.675 38.568a1 1 0 0 1 -.5-1.866l1.942-1.121a1 1 0 1 1 1 1.732l-1.943 1.121a.994.994 0 0 1 -.499.134z"/><path d="m35.764 23.116a1 1 0 0 1 -.5-1.866l2.252-1.3a1 1 0 1 1 1 1.731l-2.252 1.3a.99.99 0 0 1 -.5.135z"/><path d="m15.756 17.741a1 1 0 0 1 -.867-.5l-2.569-4.45a1 1 0 0 1 1.732-1l2.569 4.45a1 1 0 0 1 -.865 1.5z"/><path d="m8.225 30.563h-5.225a1 1 0 0 1 0-2h5.225a1 1 0 0 1 0 2z"/><path d="m30.474 17.451a1 1 0 0 1 -.861-1.506l2.442-4.16a1 1 0 0 1 1.724 1.015l-2.442 4.16a1 1 0 0 1 -.863.491z"/><path d="m60.544 62.709h-49.616a8.925 8.925 0 0 1 -.894-17.809 11.457 11.457 0 0 1 11.34-13.016 11.338 11.338 0 0 1 2.752.332 8.935 8.935 0 0 1 14.774-.922 11.31 11.31 0 0 1 7.323-2.65 11.461 11.461 0 0 1 11.427 10.82 11.452 11.452 0 0 1 14.35 11.079c0 6.481-5.354 12.166-11.456 12.166zm-49.576-15.849h-.04a6.925 6.925 0 1 0 0 13.85h49.616c5.037 0 9.456-4.75 9.456-10.166a9.452 9.452 0 0 0 -12.987-8.766 1 1 0 0 1 -1.369-1.014c.019-.221.023-.447.023-.672a9.457 9.457 0 0 0 -9.446-9.447 9.336 9.336 0 0 0 -6.782 2.877 1 1 0 0 1 -1.589-.2 6.935 6.935 0 0 0 -12.313.51 1 1 0 0 1 -1.226.526 9.181 9.181 0 0 0 -2.937-.468 9.457 9.457 0 0 0 -9.446 9.447 9.318 9.318 0 0 0 .279 2.285 1 1 0 0 1 -.2.879.973.973 0 0 1 -.824.364c-.071-.005-.144-.005-.215-.005z"/></g></svg>