<?xml version="1.0" encoding="iso-8859-1"?>
<!-- Generator: Adobe Illustrator 19.0.0, SVG Export Plug-In . SVG Version: 6.00 Build 0)  -->
<svg version="1.1" id="Layer_1" xmlns="http://www.w3.org/2000/svg" xmlns:xlink="http://www.w3.org/1999/xlink" x="0px" y="0px"
	 viewBox="0 0 512 512" style="enable-background:new 0 0 512 512;" xml:space="preserve">
<g>
	<g>
		<path d="M181.344,415.988c-5.906,0-10.672,4.781-10.672,10.688c0,5.875,4.766,10.656,10.672,10.656
			c5.875,0,10.656-4.781,10.656-10.656C192,420.77,187.219,415.988,181.344,415.988z"/>
	</g>
</g>
<g>
	<g>
		<path d="M245.344,415.988c-5.906,0-10.672,4.781-10.672,10.688c0,5.875,4.766,10.656,10.672,10.656
			c5.875,0,10.656-4.781,10.656-10.656C256,420.77,251.219,415.988,245.344,415.988z"/>
	</g>
</g>
<g>
	<g>
		<path d="M276.562,351.676c-5.891,0-10.656,4.766-10.656,10.656s4.766,10.656,10.656,10.656c5.891,0,10.672-4.766,10.672-10.656
			S282.453,351.676,276.562,351.676z"/>
	</g>
</g>
<g>
	<g>
		<path d="M213.219,351.676c-5.875,0-10.656,4.766-10.656,10.656s4.781,10.656,10.656,10.656c5.906,0,10.672-4.766,10.672-10.656
			S219.125,351.676,213.219,351.676z"/>
	</g>
</g>
<g>
	<g>
		<path d="M149.344,479.988c-5.906,0-10.672,4.781-10.672,10.688c0,5.875,4.766,10.656,10.672,10.656
			c5.875,0,10.656-4.781,10.656-10.656C160,484.77,155.219,479.988,149.344,479.988z"/>
	</g>
</g>
<g>
	<g>
		<path d="M213.344,479.988c-5.906,0-10.672,4.781-10.672,10.688c0,5.875,4.766,10.656,10.672,10.656
			c5.875,0,10.656-4.781,10.656-10.656C224,484.77,219.219,479.988,213.344,479.988z"/>
	</g>
</g>
<g>
	<g>
		<path d="M352,10.668c-46.125,0-87.672,19.516-116.875,50.742c-15.641-18.016-38.719-29.414-64.453-29.414
			c-47.141,0-85.328,38.211-85.328,85.336c0,0.711,0,1.422,0.016,2.133C36.656,129.332,0,172.387,0,223.996
			c0,58.914,47.75,106.68,106.672,106.68H352c88.375,0,160-71.648,160-160.008C512,82.301,440.375,10.668,352,10.668z
			 M450.062,268.707c-12.75,12.75-27.578,22.75-44.094,29.734c-17.078,7.234-35.234,10.891-53.969,10.891H106.672
			c-22.797,0-44.234-8.875-60.344-25c-16.109-16.109-24.984-37.539-24.984-60.336c0-10.109,1.734-19.992,5.188-29.375
			c3.312-9.07,8.141-17.461,14.328-24.953c12.438-15.039,29.75-25.445,48.734-29.297l17.531-3.555l-0.438-17.875
			c-0.016-0.57-0.016-1.102-0.016-1.609c0-35.289,28.703-64,64-64c18.547,0,36.172,8.039,48.344,22.062l15.516,17.875l16.172-17.289
			c12.859-13.742,28.047-24.562,45.172-32.148C313.562,35.98,332.453,31.996,352,31.996c18.734,0,36.891,3.664,53.969,10.891
			c16.516,6.984,31.344,16.984,44.094,29.727c12.734,12.742,22.734,27.57,29.719,44.086c7.219,17.078,10.891,35.234,10.891,53.969
			c0,18.727-3.672,36.883-10.891,53.969C472.797,241.145,462.797,255.973,450.062,268.707z"/>
	</g>
</g>
<g>
	<g>
		<path d="M149.344,351.988c-4.188,0-7.781,2.406-9.531,5.906h-0.016l-64,128h0.016c-0.719,1.438-1.141,3.062-1.141,4.781
			c0,5.875,4.766,10.656,10.672,10.656c4.156,0,7.781-2.406,9.531-5.906l64-128c0.719-1.438,1.125-3.047,1.125-4.75
			C160,356.77,155.219,351.988,149.344,351.988z"/>
	</g>
</g>
<g>
	<g>
		<path d="M341.344,351.988c-4.188,0-7.781,2.406-9.531,5.906h-0.016l-64,128h0.016c-0.719,1.438-1.141,3.062-1.141,4.781
			c0,5.875,4.766,10.656,10.672,10.656c4.156,0,7.781-2.406,9.531-5.906l64-128c0.719-1.438,1.125-3.047,1.125-4.75
			C352,356.77,347.219,351.988,341.344,351.988z"/>
	</g>
</g>
<g>
</g>
<g>
</g>
<g>
</g>
<g>
</g>
<g>
</g>
<g>
</g>
<g>
</g>
<g>
</g>
<g>
</g>
<g>
</g>
<g>
</g>
<g>
</g>
<g>
</g>
<g>
</g>
<g>
</g>
</svg>
