<?xml version="1.0" encoding="iso-8859-1"?>
<!-- Generator: Adobe Illustrator 19.0.0, SVG Export Plug-In . SVG Version: 6.00 Build 0)  -->
<svg version="1.1" id="Layer_1" xmlns="http://www.w3.org/2000/svg" xmlns:xlink="http://www.w3.org/1999/xlink" x="0px" y="0px"
	 viewBox="0 0 512 512" style="enable-background:new 0 0 512 512;" xml:space="preserve">
<g>
	<g>
		<path d="M352,42.707c-46.125,0-87.68,19.523-116.883,50.75c-15.641-18.023-38.719-29.414-64.453-29.414
			c-47.133,0-85.336,38.203-85.336,85.336c0,0.711,0.008,1.422,0.031,2.125C36.656,161.379,0,204.426,0,256.043
			c0,58.906,47.75,106.656,106.664,106.656h96.602C196.547,379.324,192,394.824,192,405.293c0,35.344,28.648,64,64,64
			c35.344,0,64-28.656,64-64c0-10.469-4.547-25.969-11.25-42.594H352c88.359,0,160-71.625,160-159.992S440.359,42.707,352,42.707z
			 M256,447.949c-23.531,0-42.672-19.141-42.672-42.656c0-8.75,6.602-30.719,21.344-60.156
			c8.047-16.078,15.617-28.656,21.359-37.141c5.734,8.484,13.289,21.062,21.312,37.125c14.719,29.438,21.312,51.422,21.312,60.172
			C298.656,428.809,279.531,447.949,256,447.949z M450.047,300.762c-12.734,12.75-27.578,22.75-44.078,29.719
			c-17.094,7.234-35.25,10.906-53.969,10.906h-52.719c-15.875-33-36.188-64-43.25-64c-7.055,0-27.398,31-43.289,64H106.664
			c-22.797,0-44.227-8.891-60.344-25c-16.117-16.125-24.992-37.562-24.992-60.344c0-10.109,1.742-19.992,5.188-29.375
			c3.328-9.07,8.148-17.469,14.336-24.953c12.445-15.047,29.75-25.453,48.742-29.305l17.531-3.547l-0.445-17.891
			c-0.008-0.547-0.016-1.086-0.016-1.594c0-35.297,28.711-64,64-64c18.547,0,36.172,8.039,48.352,22.062l15.516,17.875
			l16.172-17.289c12.852-13.742,28.047-24.562,45.156-32.156c17.702-7.85,36.593-11.827,56.14-11.827
			c18.719,0,36.875,3.664,53.969,10.891c16.5,6.977,31.344,16.984,44.078,29.727c12.734,12.734,22.734,27.57,29.734,44.078
			c7.219,17.086,10.875,35.242,10.875,53.969c0,18.734-3.656,36.891-10.875,53.969C472.781,273.184,462.781,288.012,450.047,300.762
			z"/>
	</g>
</g>
<g>
	<g>
		<path d="M373.281,384.043c-6.094,0-31.953,35.562-31.953,53.25c0,17.656,14.328,32,32,32s32-14.344,32-32
			C405.328,419.605,379.375,384.043,373.281,384.043z M373.328,447.949c-5.859,0-10.641-4.75-10.672-10.594
			c0.109-1.484,1.812-7.875,8.156-18.344c0.828-1.391,1.656-2.719,2.5-3.969c0.812,1.25,1.656,2.594,2.5,3.969
			c6.375,10.469,8.078,16.859,8.188,18.344C383.969,443.199,379.188,447.949,373.328,447.949z"/>
	</g>
</g>
<g>
	<g>
		<path d="M138.609,384.043c-6.094,0-31.945,35.562-31.945,53.25c0,17.656,14.328,32,32,32s32-14.344,32-32
			C170.664,419.605,144.703,384.043,138.609,384.043z M138.664,447.949c-5.859,0-10.633-4.75-10.664-10.594
			c0.102-1.484,1.797-7.875,8.141-18.344c0.836-1.391,1.672-2.719,2.492-3.969c0.828,1.25,1.672,2.594,2.516,3.969
			c6.367,10.469,8.07,16.859,8.18,18.344C149.289,443.199,144.523,447.949,138.664,447.949z"/>
	</g>
</g>
<g>
</g>
<g>
</g>
<g>
</g>
<g>
</g>
<g>
</g>
<g>
</g>
<g>
</g>
<g>
</g>
<g>
</g>
<g>
</g>
<g>
</g>
<g>
</g>
<g>
</g>
<g>
</g>
<g>
</g>
</svg>
