<?xml version="1.0" encoding="iso-8859-1"?>
<!-- Generator: Adobe Illustrator 19.0.0, SVG Export Plug-In . SVG Version: 6.00 Build 0)  -->
<svg version="1.1" id="Capa_1" xmlns="http://www.w3.org/2000/svg" xmlns:xlink="http://www.w3.org/1999/xlink" x="0px" y="0px"
	 viewBox="0 0 480 480" style="enable-background:new 0 0 480 480;" xml:space="preserve">
<g>
	<g>
		<polygon points="96,320 75.312,320 89.656,305.656 78.344,294.344 64,308.688 64,288 48,288 48,308.688 33.656,294.344 
			22.344,305.656 36.688,320 16,320 16,336 36.688,336 22.344,350.344 33.656,361.656 48,347.312 48,368 64,368 64,347.312 
			78.344,361.656 89.656,350.344 75.312,336 96,336 		"/>
	</g>
</g>
<g>
	<g>
		<polygon points="128,432 107.312,432 121.656,417.656 110.344,406.344 96,420.688 96,400 80,400 80,420.688 65.656,406.344 
			54.344,417.656 68.688,432 48,432 48,448 68.688,448 54.344,462.344 65.656,473.656 80,459.312 80,480 96,480 96,459.312 
			110.344,473.656 121.656,462.344 107.312,448 128,448 		"/>
	</g>
</g>
<g>
	<g>
		<polygon points="232,320 211.312,320 225.656,305.656 214.344,294.344 200,308.688 200,288 184,288 184,308.688 169.656,294.344 
			158.344,305.656 172.688,320 152,320 152,336 172.688,336 158.344,350.344 169.656,361.656 184,347.312 184,368 200,368 
			200,347.312 214.344,361.656 225.656,350.344 211.312,336 232,336 		"/>
	</g>
</g>
<g>
	<g>
		<polygon points="264,432 243.312,432 257.656,417.656 246.344,406.344 232,420.688 232,400 216,400 216,420.688 201.656,406.344 
			190.344,417.656 204.688,432 184,432 184,448 204.688,448 190.344,462.344 201.656,473.656 216,459.312 216,480 232,480 
			232,459.312 246.344,473.656 257.656,462.344 243.312,448 264,448 		"/>
	</g>
</g>
<g>
	<g>
		<path d="M390.24,72.952C376.032,30.384,327.304,0,272,0c-51.352,0-94.752,28.784-109.92,72.216
			c-32.712,2.032-60.192,17.392-71.312,39.736c-0.12,0-0.24,0.008-0.36,0.008L88,112c-48.52,0-88,35.888-88,80s39.48,80,88,80
			h280.272C428.832,269.928,480,222.304,480,168C480,121.504,443.344,83.016,390.24,72.952z M368,256H88c-39.696,0-72-28.712-72-64
			c0-35.288,32.304-64,72-64l2.768-0.04c0.872-0.016,1.768-0.04,2.632-0.04c0.696,0,1.376,0.016,2,0.064
			c3.592,0.272,6.888-1.872,8.112-5.24c7.304-20.04,33.864-34.328,64.592-34.736c3.536-0.048,6.616-2.408,7.584-5.808
			C187,42.6,225.696,16,272,16c49.496,0,94.32,28.392,104.264,66.04c0.816,3.08,3.376,5.384,6.528,5.864
			C430.608,95.208,464,128.144,464,168C464,213.92,419.912,254.224,368,256z"/>
	</g>
</g>
<g>
	<g>
		<path d="M424,416H304v16h120c8.824,0,16,7.176,16,16c0,8.824-7.176,16-16,16v16c17.648,0,32-14.352,32-32S441.648,416,424,416z"/>
	</g>
</g>
<g>
	<g>
		<path d="M424,272v16c8.824,0,16,7.176,16,16c0,8.824-7.176,16-16,16H304v16h120c17.648,0,32-14.352,32-32S441.648,272,424,272z"/>
	</g>
</g>
<g>
	<g>
		<path d="M464,336c0,8.824-7.176,16-16,16H304v16h144c17.648,0,32-14.352,32-32H464z"/>
	</g>
</g>
<g>
	<g>
		<path d="M448,384H304v16h144c8.824,0,16,7.176,16,16h16C480,398.352,465.648,384,448,384z"/>
	</g>
</g>
<g>
</g>
<g>
</g>
<g>
</g>
<g>
</g>
<g>
</g>
<g>
</g>
<g>
</g>
<g>
</g>
<g>
</g>
<g>
</g>
<g>
</g>
<g>
</g>
<g>
</g>
<g>
</g>
<g>
</g>
</svg>
