<?xml version="1.0" encoding="iso-8859-1"?>
<!-- Generator: Adobe Illustrator 19.0.0, SVG Export Plug-In . SVG Version: 6.00 Build 0)  -->
<svg version="1.1" id="Capa_1" xmlns="http://www.w3.org/2000/svg" xmlns:xlink="http://www.w3.org/1999/xlink" x="0px" y="0px"
	 viewBox="0 0 512 512" style="enable-background:new 0 0 512 512;" xml:space="preserve">
<g>
	<g>
		<g>
			<path d="M335,255c0-11.046-8.954-20-20-20H20c-11.046,0-20,8.954-20,20s8.954,20,20,20h295C326.046,275,335,266.046,335,255z"/>
			<path d="M116,196h334c11.046,0,20-8.954,20-20s-8.954-20-20-20H116c-10.477,0-19-8.523-19-19s8.523-19,19-19h169
				c11.046,0,20-8.954,20-20s-8.954-20-20-20H116c-32.532,0-59,26.467-59,59S83.468,196,116,196z"/>
			<path d="M330,40h67c10.477,0,19,8.523,19,19s-8.523,19-19,19h-31c-11.046,0-20,8.954-20,20s8.954,20,20,20h31
				c32.532,0,59-26.467,59-59S429.532,0,397,0h-67c-11.046,0-20,8.954-20,20S318.954,40,330,40z"/>
			<path d="M157,40h93c11.046,0,20-8.954,20-20s-8.954-20-20-20h-93c-11.046,0-20,8.954-20,20S145.954,40,157,40z"/>
			<path d="M219.995,472H139c-11.046,0-20,8.954-20,20c0,11.046,8.954,20,20,20h80.995c11.046,0,20-8.954,20-20
				C239.995,480.954,231.041,472,219.995,472z"/>
			<path d="M452.5,235H395c-11.046,0-20,8.954-20,20s8.954,20,20,20h57.5c10.752,0,19.5,8.748,19.5,19.5s-8.748,19.5-19.5,19.5H333
				c-11.046,0-20,8.954-20,20c0,11.046,8.954,20,20,20h119.5c32.809,0,59.5-26.691,59.5-59.5C512,261.691,485.309,235,452.5,235z"/>
			<path d="M473,393H245c-11.046,0-20,8.954-20,20c0,11.046,8.954,20,20,20h228c11.046,0,20-8.954,20-20
				C493,401.954,484.046,393,473,393z"/>
			<path d="M185,413c0-11.046-8.954-20-20-20H92.5c-10.752,0-19.5-8.748-19.5-19.5S81.748,354,92.5,354H253c11.046,0,20-8.954,20-20
				c0-11.046-8.954-20-20-20H92.5C59.691,314,33,340.691,33,373.5c0,32.809,26.691,59.5,59.5,59.5H165
				C176.046,433,185,424.046,185,413z"/>
			<path d="M389,472h-89c-11.046,0-20,8.954-20,20c0,11.046,8.954,20,20,20h89c11.046,0,20-8.954,20-20
				C409,480.954,400.046,472,389,472z"/>
		</g>
	</g>
</g>
<g>
</g>
<g>
</g>
<g>
</g>
<g>
</g>
<g>
</g>
<g>
</g>
<g>
</g>
<g>
</g>
<g>
</g>
<g>
</g>
<g>
</g>
<g>
</g>
<g>
</g>
<g>
</g>
<g>
</g>
</svg>
