<?xml version="1.0" encoding="iso-8859-1"?>
<!-- Generator: Adobe Illustrator 19.0.0, SVG Export Plug-In . SVG Version: 6.00 Build 0)  -->
<svg version="1.1" id="Layer_1" xmlns="http://www.w3.org/2000/svg" xmlns:xlink="http://www.w3.org/1999/xlink" x="0px" y="0px"
	 viewBox="0 0 512.001 512.001" style="enable-background:new 0 0 512.001 512.001;" xml:space="preserve">
<g>
	<g>
		<path d="M352,58.334c-46.125,0-87.68,19.523-116.875,50.75c-15.648-18.023-38.719-29.414-64.461-29.414
			c-47.125,0-85.328,38.203-85.328,85.336c0,0.711,0.008,1.422,0.023,2.125C36.656,177.006,0,220.053,0,271.676
			c0,58.906,47.758,106.656,106.664,106.656h32.195v-21.328h-32.195c-22.789,0-44.219-8.891-60.336-25s-24.992-37.547-24.992-60.328
			c0-10.125,1.742-19.999,5.18-29.382c3.328-9.07,8.156-17.469,14.344-24.953c12.438-15.047,29.75-25.453,48.742-29.305
			l17.531-3.555l-0.445-17.883c-0.016-0.547-0.023-1.086-0.023-1.594c0-35.297,28.711-64,64-64c18.555,0,36.172,8.039,48.352,22.062
			l15.523,17.875l16.164-17.289c12.859-13.75,28.047-24.562,45.172-32.156c17.688-7.852,36.578-11.828,56.125-11.828
			c18.719,0,36.891,3.664,53.969,10.891c16.5,6.977,31.344,16.984,44.094,29.727c12.734,12.734,22.734,27.57,29.719,44.078
			c7.219,17.086,10.875,35.242,10.875,53.969c0,18.734-3.656,36.891-10.875,53.968c-6.984,16.5-16.984,31.344-29.719,44.094
			c-12.75,12.734-27.594,22.734-44.094,29.719c-17.078,7.219-35.25,10.891-53.969,10.891v21.328c88.375,0,160-71.625,160-159.999
			C512,129.967,440.375,58.334,352,58.334z"/>
	</g>
</g>
<g>
	<g>
		<path d="M341.421,367.675c0-5.89-4.766-10.672-10.672-10.672h-4.062l2.953-5.891l-0.016-0.016
			c0.719-1.438,1.141-3.047,1.141-4.766c0-5.891-4.781-10.656-10.672-10.656c-4.172,0-7.781,2.406-9.531,5.891h-0.016l-7.719,15.438
			h-38.93l19.477-33.719l17.219,1.031c3.906,0.234,7.797-1.688,9.875-5.312c2.953-5.094,1.203-11.625-3.906-14.562
			c-1.484-0.859-3.078-1.312-4.688-1.406v-0.016l-6.578-0.391l2.031-3.531c2.953-5.094,1.203-11.625-3.906-14.562
			c-5.094-2.953-11.625-1.203-14.562,3.906l-2.047,3.516l-3.625-5.5l-0.016,0.016c-0.875-1.344-2.062-2.516-3.547-3.375
			c-5.109-2.938-11.625-1.188-14.578,3.906c-2.094,3.625-1.812,7.938,0.344,11.203v0.016l9.5,14.391l-19.469,33.719l-19.453-33.719
			l9.5-14.391v-0.016c2.141-3.266,2.422-7.578,0.344-11.203c-2.953-5.094-9.469-6.844-14.578-3.906
			c-1.484,0.859-2.672,2.031-3.562,3.375v-0.016l-3.641,5.5L212,288.441c-2.953-5.109-9.469-6.859-14.578-3.906
			c-5.094,2.938-6.844,9.469-3.906,14.562l2.047,3.531l-6.578,0.391v0.016c-1.609,0.094-3.219,0.547-4.703,1.406
			c-5.094,2.938-6.844,9.469-3.906,14.562c2.094,3.625,5.984,5.547,9.891,5.312l17.219-1.031l19.461,33.719h-38.93l-7.719-15.438
			c-1.75-3.484-5.359-5.891-9.531-5.891c-5.891,0-10.672,4.766-10.672,10.656c0,1.719,0.422,3.328,1.141,4.766l-0.016,0.016
			l2.945,5.891h-4.078c-5.891,0-10.664,4.781-10.664,10.672s4.773,10.656,10.664,10.656h4.078l-2.945,5.906h0.008
			c-0.719,1.438-1.141,3.047-1.141,4.766c0,5.891,4.781,10.672,10.672,10.672c4.172,0,7.781-2.406,9.531-5.906h0.008l7.719-15.438
			h38.93l-19.461,33.719l-17.234-1.031v0.016c-3.898-0.234-7.789,1.688-9.875,5.297c-2.945,5.109-1.195,11.625,3.906,14.578
			c1.484,0.859,3.094,1.297,4.695,1.391v0.016l6.578,0.391l-2.039,3.531c-2.945,5.094-1.195,11.625,3.906,14.578
			c5.102,2.938,11.625,1.188,14.57-3.906l2.039-3.531l3.633,5.5h0.008c0.883,1.328,2.07,2.5,3.562,3.359
			c5.101,2.937,11.624,1.202,14.57-3.907c2.086-3.609,1.805-7.938-0.344-11.203h0.008l-9.508-14.406l19.461-33.719l19.469,33.719
			l-9.508,14.406c-2.148,3.266-2.43,7.594-0.336,11.203c2.945,5.109,9.469,6.844,14.57,3.906c1.484-0.859,2.664-2.031,3.555-3.359
			h0.016l3.625-5.5l2.031,3.531c2.953,5.094,9.469,6.844,14.578,3.906c5.109-2.953,6.859-9.469,3.906-14.578l-2.047-3.531
			l6.594-0.391v-0.016c1.594-0.094,3.203-0.531,4.688-1.391c5.094-2.953,6.844-9.469,3.906-14.578
			c-2.094-3.609-5.969-5.531-9.875-5.297v-0.016l-17.219,1.031l-19.477-33.719h38.93l7.719,15.438h0.016
			c1.75,3.5,5.344,5.906,9.531,5.906c5.891,0,10.656-4.781,10.656-10.672c0-1.719-0.406-3.328-1.125-4.766l-2.938-5.906h4.062
			C336.655,378.331,341.421,373.565,341.421,367.675z"/>
	</g>
</g>
<g>
</g>
<g>
</g>
<g>
</g>
<g>
</g>
<g>
</g>
<g>
</g>
<g>
</g>
<g>
</g>
<g>
</g>
<g>
</g>
<g>
</g>
<g>
</g>
<g>
</g>
<g>
</g>
<g>
</g>
</svg>
